<svg xmlns="http://www.w3.org/2000/svg" width="18.5" height="19.5" viewBox="0 0 18.5 19.5">
  <path id="icons8-user" d="M12,3A4.131,4.131,0,0,0,8,7.222a4.131,4.131,0,0,0,4,4.222,4.131,4.131,0,0,0,4-4.222A4.131,4.131,0,0,0,12,3Zm0,2.111a2.042,2.042,0,0,1,2,2.111,2,2,0,1,1-4,0A2.042,2.042,0,0,1,12,5.111Zm0,9.5a15.217,15.217,0,0,0-5.551,1.157,8.237,8.237,0,0,0-2.283,1.344A3.023,3.023,0,0,0,3,19.361V22H21V19.361a3.023,3.023,0,0,0-1.166-2.249,8.237,8.237,0,0,0-2.283-1.344A15.217,15.217,0,0,0,12,14.611Zm0,2.111a13.827,13.827,0,0,1,4.818,1.008,6.622,6.622,0,0,1,1.736,1c.378.332.445.558.445.627v.528H5v-.528c0-.069.068-.3.445-.627a6.622,6.622,0,0,1,1.736-1A13.827,13.827,0,0,1,12,16.722Z" transform="translate(-2.75 -2.75)" fill="#555" stroke="#555" stroke-width="0.5"/>
</svg>
