<svg xmlns="http://www.w3.org/2000/svg" width="56.739" height="47.661" viewBox="0 0 56.739 47.661">
  <path id="icons8-add-image_1_" data-name="icons8-add-image (1)" d="M5.319,4A5.283,5.283,0,0,0,0,9.248a7.738,7.738,0,0,0,1.206,3.3,8.021,8.021,0,0,1,1.17,2.908,21.376,21.376,0,0,1-.78,3.688A37.1,37.1,0,0,0,0,27.83a36.061,36.061,0,0,0,1.56,8.511,21.83,21.83,0,0,1,.816,3.865,7.768,7.768,0,0,1-1.17,3.014A7.368,7.368,0,0,0,0,46.412a5.283,5.283,0,0,0,5.319,5.248A14.913,14.913,0,0,0,9.078,50.7a22.4,22.4,0,0,1,5.674-1.348A5.114,5.114,0,0,1,17.66,50.42a6.1,6.1,0,0,0,3.369,1.241,8.642,8.642,0,0,0,3.759-1.17,8.3,8.3,0,0,1,3.582-1.135,5.137,5.137,0,0,1,2.908,1.064,6.067,6.067,0,0,0,3.369,1.241,11.6,11.6,0,0,0,4.433-1.348,9.039,9.039,0,0,1,2.908-.957,27.039,27.039,0,0,1,4.894,1.206,20.406,20.406,0,0,0,4.539,1.1,5.283,5.283,0,0,0,5.319-5.248,7.737,7.737,0,0,0-1.206-3.3,8.022,8.022,0,0,1-1.17-2.908,23.375,23.375,0,0,1,.816-3.9,37.931,37.931,0,0,0,1.56-8.475A37.075,37.075,0,0,0,55.214,19.5a23.409,23.409,0,0,1-.851-4.043,7.767,7.767,0,0,1,1.17-3.014,7.424,7.424,0,0,0,1.206-3.192A5.283,5.283,0,0,0,51.42,4a14.484,14.484,0,0,0-3.759.957A22.261,22.261,0,0,1,41.987,6.34a5.063,5.063,0,0,1-2.908-1.064A6.043,6.043,0,0,0,35.71,4a8.717,8.717,0,0,0-3.794,1.206A8.044,8.044,0,0,1,28.369,6.34,5.009,5.009,0,0,1,25.5,5.277,6.16,6.16,0,0,0,22.093,4,11.422,11.422,0,0,0,17.66,5.348a9.179,9.179,0,0,1-2.908.993A26.387,26.387,0,0,1,9.858,5.135,20.579,20.579,0,0,0,5.319,4Zm4.894,10.213H46.526V41.448H10.213Zm17.022,5.674V26.7H20.426v2.27h6.809v6.809H29.5V28.965h6.809V26.7H29.5V19.887Z" transform="translate(0 -4)" fill="#2696cc"/>
</svg>
