<svg xmlns="http://www.w3.org/2000/svg" width="19" height="17.511" viewBox="0 0 19 17.511">
  <path id="icons8-remove-ads_1_" data-name="icons8-remove-ads (1)" d="M17.658,3.684,17,5,10.606,7.74A1,1,0,0,0,10,8.658V15.34a1,1,0,0,0,.606.92L17,17.57A14.357,14.357,0,0,1,18.572,18.7,1.9,1.9,0,0,0,20,17.883a3.925,3.925,0,0,0,0-2.1V13.729a2,2,0,0,0,0-3.459V4.236C20,3.553,17.868,3.266,17.658,3.684ZM4,8a2.006,2.006,0,0,0-2,2v4a2.006,2.006,0,0,0,2,2H6v4a1,1,0,0,0,2,0V9A1,1,0,0,0,7,8Z" transform="translate(-2 -3.489)" fill="#fff"/>
</svg>
