<svg xmlns="http://www.w3.org/2000/svg" width="27.421" height="26.279" viewBox="0 0 27.421 26.279">
  <g id="Car_dale_icon" data-name="Car dale icon" transform="translate(-36.595 -81.058)">
    <path id="icons8-car-sale" d="M14.711,2a5.713,5.713,0,1,0,5.713,5.713A5.73,5.73,0,0,0,14.711,2Zm0,1.143a4.57,4.57,0,1,1-4.57,4.57A4.585,4.585,0,0,1,14.711,3.143Zm6.508,6.716a6.9,6.9,0,0,1-.446,1.051,2.018,2.018,0,0,1,1.045.868c.19.433.791,1.966,1.414,3.569h0a2.9,2.9,0,0,1,.292,1.33.613.613,0,0,1-.368.46,3.371,3.371,0,0,1-1.588.287H7.855a3.371,3.371,0,0,1-1.588-.287.613.613,0,0,1-.368-.46,2.9,2.9,0,0,1,.292-1.33l-.03-.011c.669-1.746,1.242-3.207,1.386-3.486a2.311,2.311,0,0,1,1.116-.912,6.815,6.815,0,0,1-.451-1.054,3.4,3.4,0,0,0-1.682,1.443c-.182.353-.844,2.052-1.517,3.812H3.342a2.413,2.413,0,0,0-1.866.707A2.006,2.006,0,0,0,1,17.189,1.341,1.341,0,0,0,1.589,18.3a2.143,2.143,0,0,0,1.172.262h.954c-.1.261-.357.944-.393,1.04l-.037.1v6.861A1.722,1.722,0,0,0,5,28.279H7.284A1.723,1.723,0,0,0,9,26.565v-.571H20.423v.571a1.722,1.722,0,0,0,1.714,1.714h2.285a1.723,1.723,0,0,0,1.714-1.714V19.7l-.038-.1c-.015-.04-.3-.787-.4-1.035h.962a2.143,2.143,0,0,0,1.172-.262,1.341,1.341,0,0,0,.589-1.116,2.006,2.006,0,0,0-.476-1.342,2.413,2.413,0,0,0-1.866-.707h-1.7c-.03-.07-.059-.139-.077-.183-.63-1.622-1.242-3.185-1.44-3.639A3.077,3.077,0,0,0,21.219,9.858ZM3.342,16.282H4.579c-.191.5-.271.717-.432,1.143H2.761a1.356,1.356,0,0,1-.572-.093c-.053-.033-.046.017-.046-.143a.9.9,0,0,1,.192-.588A1.216,1.216,0,0,1,3.342,16.282Zm21.478,0h1.26a1.217,1.217,0,0,1,1.008.319.9.9,0,0,1,.192.588c0,.16.007.11-.046.143a1.355,1.355,0,0,1-.572.093h-1.4C25.086,16.973,25.031,16.829,24.82,16.282ZM5.243,17.759a1.928,1.928,0,0,0,.463.375,4.344,4.344,0,0,0,2.149.433H21.566a4.344,4.344,0,0,0,2.149-.433,1.93,1.93,0,0,0,.453-.365c.307.8.738,1.913.827,2.143v3.8h0v.658a.5.5,0,0,1-.514.484H4.942a.5.5,0,0,1-.514-.49v-4.45C4.671,19.262,4.964,18.5,5.243,17.759Zm1.469,1.379A1.723,1.723,0,0,0,5,20.852a1.868,1.868,0,0,0,.5,1.268,3.907,3.907,0,0,0,.979.706,11.576,11.576,0,0,0,1.193.645A3.346,3.346,0,0,0,9,23.709a2.285,2.285,0,0,0,0-4.57Zm13.711,0a2.285,2.285,0,0,0,0,4.57,3.346,3.346,0,0,0,1.328-.238,11.576,11.576,0,0,0,1.193-.645h0a3.9,3.9,0,0,0,.977-.705,1.868,1.868,0,0,0,.5-1.268,1.723,1.723,0,0,0-1.714-1.714ZM6.713,20.281H9a1.143,1.143,0,0,1,0,2.285,2.017,2.017,0,0,1-.887-.15c-.252-.105-.565-.3-1.07-.585h0a3.191,3.191,0,0,1-.707-.492.592.592,0,0,1-.191-.487A.563.563,0,0,1,6.713,20.281Zm13.711,0h2.285a.563.563,0,0,1,.571.571.592.592,0,0,1-.191.487,3.191,3.191,0,0,1-.707.492h0c-.505.287-.818.48-1.07.585a2.018,2.018,0,0,1-.887.15,1.143,1.143,0,0,1,0-2.285Zm-16,5.625a1.66,1.66,0,0,0,.514.088H7.855v.571a.564.564,0,0,1-.571.571H5a.564.564,0,0,1-.571-.571Zm20.566,0v.659a.564.564,0,0,1-.571.571H22.137a.564.564,0,0,1-.571-.571v-.571h2.913A1.66,1.66,0,0,0,24.994,25.906Z" transform="translate(35.595 79.058)" fill="#2696cc"/>
    <text id="SALE" transform="translate(46.739 87.686)" fill="#2696cc" stroke="rgba(0,0,0,0)" stroke-width="1" font-size="3" font-family="Roboto-Bold, Roboto" font-weight="700"><tspan x="0" y="0">SALE</tspan></text>
  </g>
</svg>
