<svg xmlns="http://www.w3.org/2000/svg" width="16.388" height="16.396" viewBox="0 0 16.388 16.396">
  <path id="icons8-shopping-cart_1_" data-name="icons8-shopping-cart (1)" d="M3.25,2l-1.427.011a.82.82,0,1,0,.011,1.64l.877-.006,2.7,6.478L4.43,11.692A1.73,1.73,0,0,0,5.872,14.3h9.066a.82.82,0,1,0,0-1.64H5.872c-.091,0-.1-.018-.053-.1h0l.964-1.544h6.121a1.639,1.639,0,0,0,1.433-.844l2.953-5.318a.819.819,0,0,0-.716-1.217H4.486L4.013,2.5A.82.82,0,0,0,3.25,2ZM5.92,15.117a1.64,1.64,0,1,0,1.64,1.64A1.64,1.64,0,0,0,5.92,15.117Zm8.2,0a1.64,1.64,0,1,0,1.64,1.64A1.64,1.64,0,0,0,14.119,15.117Z" transform="translate(-1.009 -2)" fill="#fff"/>
</svg>
