<svg xmlns="http://www.w3.org/2000/svg" width="22" height="22" viewBox="0 0 22 22">
  <path id="chat" d="M19.25,17.875V22q-.15-.086-.43-.258a11.9,11.9,0,0,1-1.16-.945,17.737,17.737,0,0,1-1.762-1.8,9,9,0,0,1-2.149.258,12.2,12.2,0,0,1-2.89-.322,8.537,8.537,0,0,1-2.159-.8A6.813,6.813,0,0,1,7.272,17.08a4.209,4.209,0,0,1-.838-1.074,2.026,2.026,0,0,1-.247-.881H8.25a11.948,11.948,0,0,0,4.93-.967A7.935,7.935,0,0,0,16.608,11.3a7.754,7.754,0,0,0,1.267-4.426Q22,8.959,22,12.719a6.261,6.261,0,0,1-2.75,5.157ZM17.875,6.875ZM8.25,13.75A9,9,0,0,1,6.1,13.492a18.7,18.7,0,0,1-1.719,1.783,8.923,8.923,0,0,1-1.246.988l-.387.236V12.375A6.26,6.26,0,0,1,0,7.219,6.411,6.411,0,0,1,1.107,3.6,7.746,7.746,0,0,1,4.114.967,9.012,9.012,0,0,1,8.26,0a9.012,9.012,0,0,1,4.146.967,7.67,7.67,0,0,1,3,2.632,6.444,6.444,0,0,1,1.1,3.62,5.657,5.657,0,0,1-1.117,3.459A6.994,6.994,0,0,1,12.4,12.966,10.625,10.625,0,0,1,8.25,13.75Zm0-12.375a8.115,8.115,0,0,0-3.449.73,6.282,6.282,0,0,0-2.5,2,4.586,4.586,0,0,0,0,5.521,6.367,6.367,0,0,0,2.5,2.009,8.033,8.033,0,0,0,3.448.741,7.989,7.989,0,0,0,3.448-.741,6.385,6.385,0,0,0,2.5-2.009,4.586,4.586,0,0,0,0-5.521,6.321,6.321,0,0,0-2.5-2A8.061,8.061,0,0,0,8.25,1.375Z" fill="#555"/>
</svg>
