<svg xmlns="http://www.w3.org/2000/svg" width="19.339" height="15.195" viewBox="0 0 19.339 15.195">
  <path id="icons8-commercial" d="M16.54,4A1.036,1.036,0,0,0,15.5,5.036v.08l-7.6,2.338V14.36L15.5,16.7v.08a1.036,1.036,0,0,0,2.072,0V5.036A1.036,1.036,0,0,0,16.54,4ZM6.525,7.591,2.244,8.02A1.381,1.381,0,0,0,1,9.394v3.024a1.381,1.381,0,0,0,1.244,1.375l1.678.169.795,4.658a.689.689,0,0,0,.68.575h.438a.691.691,0,0,0,.691-.691l0-4.282h0ZM18.957,9.18v3.453l.335-.084a1.382,1.382,0,0,0,1.047-1.339V10.6a1.383,1.383,0,0,0-1.047-1.341Z" transform="translate(-1 -4)" fill="#2696cc"/>
</svg>
