<svg xmlns="http://www.w3.org/2000/svg" width="59.643" height="45.218" viewBox="0 0 59.643 45.218">
  <g id="Group_960" data-name="Group 960" transform="translate(-271 -152.375)">
    <path id="Path_422" data-name="Path 422" d="M-2822,2492.639v45.218l14.911-14.911,14.745,13.051,15.076-13.051,14.911,14.911v-45.218H-2822" transform="translate(3093 -2340.265)" fill="#2696cc"/>
    <path id="icons8-crown_1_" data-name="icons8-crown (1)" d="M15,2a2,2,0,0,0-.941,3.764L10.1,13.18,4.723,10.014A2,2,0,1,0,3,11q.1,0,.2-.012L4,19H26l.8-8.01q.1.01.2.01a2,2,0,1,0-1.723-.986L19.9,13.18,15.941,5.764A2,2,0,0,0,15,2ZM4,21v2a2,2,0,0,0,2,2H24a2,2,0,0,0,2-2V21Z" transform="translate(286 154)" fill="#fff"/>
  </g>
</svg>
