<svg xmlns="http://www.w3.org/2000/svg" width="13.033" height="12.996" viewBox="0 0 13.033 12.996">
  <path id="icons8-tune" d="M5.732,2a.819.819,0,0,0-.815.815v.543H2.175A.272.272,0,0,0,2.2,3.9H4.917v.543a.819.819,0,0,0,.815.815h.543a.819.819,0,0,0,.815-.815V2.815A.819.819,0,0,0,6.275,2Zm0,.543h.543a.267.267,0,0,1,.272.272v1.63a.267.267,0,0,1-.272.272H5.732a.267.267,0,0,1-.272-.272V3.681a.276.276,0,0,0,0-.11V2.815A.267.267,0,0,1,5.732,2.543Zm1.63.815V3.9h6.791a.272.272,0,1,0,0-.543Zm3.26,3.26a.819.819,0,0,0-.815.815v.543H2.175a.272.272,0,0,0,.025.543H9.806v.543a.819.819,0,0,0,.815.815h.543a.819.819,0,0,0,.815-.815V7.433a.819.819,0,0,0-.815-.815Zm0,.543h.543a.267.267,0,0,1,.272.272v1.63a.267.267,0,0,1-.272.272h-.543a.267.267,0,0,1-.272-.272V8.3a.276.276,0,0,0,0-.11V7.433A.267.267,0,0,1,10.621,7.161Zm1.63.815v.543h1.9a.272.272,0,1,0,0-.543Zm-7.334,3.26a.819.819,0,0,0-.815.815v.543H2.149a.273.273,0,1,0,.051.543H4.1v.543a.819.819,0,0,0,.815.815H5.46a.819.819,0,0,0,.815-.815v-1.63a.819.819,0,0,0-.815-.815Zm0,.543H5.46a.267.267,0,0,1,.272.272v1.63a.267.267,0,0,1-.272.272H4.917a.267.267,0,0,1-.272-.272v-.764a.276.276,0,0,0,0-.11v-.756A.267.267,0,0,1,4.917,11.779Zm1.63.815v.543h7.606a.272.272,0,1,0,0-.543Z" transform="translate(-1.65 -1.75)" fill="#888" stroke="#888" stroke-width="0.5"/>
</svg>
