<svg xmlns="http://www.w3.org/2000/svg" width="136.42" height="90.66" viewBox="0 0 136.42 90.66">
  <g id="Group_897" data-name="Group 897" transform="translate(0)">
    <path id="Path_334" data-name="Path 334" d="M432.455,413.437c4.675-8.224,13.593-14.539,23.033-13.93a43.586,43.586,0,0,0-11.463,27.642c-.155,3.964.085,8.39-2.547,11.359a9.743,9.743,0,0,1-6.6,2.929,28.934,28.934,0,0,1-7.351-.7l-.589.181C426.711,431.46,427.78,421.661,432.455,413.437Z" transform="translate(-383.521 -361.261)" fill="#f0f0f0"/>
    <path id="Path_335" data-name="Path 335" d="M455.476,398.647a37.255,37.255,0,0,0-16.588,15.818,16.043,16.043,0,0,0-1.756,4.71,9.2,9.2,0,0,0,.479,4.819,19.044,19.044,0,0,1,1.375,4.4,5.634,5.634,0,0,1-1.508,4.354,14.639,14.639,0,0,1-4.85,3.226c-1.956.927-4,1.858-5.389,3.588-.168.21-.483-.063-.316-.272,2.411-3.009,6.537-3.575,9.4-6a5.706,5.706,0,0,0,2.274-4.476,14.775,14.775,0,0,0-1.311-4.494,9.819,9.819,0,0,1-.644-4.694,14.832,14.832,0,0,1,1.568-4.76,36.144,36.144,0,0,1,6.646-9.134,37.916,37.916,0,0,1,10.483-7.48c.241-.116.375.279.135.395Z" transform="translate(-383.495 -360.203)" fill="#fff"/>
    <path id="Path_336" data-name="Path 336" d="M504.415,452.764a5.589,5.589,0,0,1-1.687-7.038c.122-.239.5-.06.377.179a5.176,5.176,0,0,0,1.582,6.544C504.9,452.606,504.631,452.921,504.415,452.764Z" transform="translate(-447.951 -400.79)" fill="#fff"/>
    <path id="Path_337" data-name="Path 337" d="M498.121,549.346a10.773,10.773,0,0,0,6.821-3.888c.169-.209.484.064.316.272a11.205,11.205,0,0,1-7.106,4.031C497.885,549.8,497.856,549.384,498.121,549.346Z" transform="translate(-444.364 -486.252)" fill="#fff"/>
    <path id="Path_338" data-name="Path 338" d="M572.864,432.385a3.164,3.164,0,0,0,2.828,1.008c.266-.041.294.375.031.416a3.545,3.545,0,0,1-3.131-1.108.215.215,0,0,1-.022-.294A.21.21,0,0,1,572.864,432.385Z" transform="translate(-508.253 -389.416)" fill="#fff"/>
    <path id="Path_339" data-name="Path 339" d="M472.1,549.7c-.165.031-.33.061-.5.095a41.673,41.673,0,0,0-6.514,1.8c-.165.057-.331.118-.494.18a43.924,43.924,0,0,0-13.815,8.407,42.65,42.65,0,0,0-4.474,4.689c-1.892,2.312-3.76,4.97-6.233,6.477a7.328,7.328,0,0,1-.8.432l-14.246-5.909c-.026-.03-.053-.056-.079-.086l-.58-.21c.065-.091.134-.185.2-.276.037-.053.078-.1.115-.158.026-.035.052-.07.073-.1l.025-.032c.021-.033.045-.061.065-.091q.577-.784,1.166-1.562s0,0,.006-.005A62.712,62.712,0,0,1,436.2,552.576c.115-.093.231-.19.353-.281a40.7,40.7,0,0,1,5.5-3.722,35.967,35.967,0,0,1,3.264-1.614,29.921,29.921,0,0,1,9.066-2.312c6.229-.578,12.573.842,17.35,4.755C471.857,549.5,471.977,549.6,472.1,549.7Z" transform="translate(-381.347 -485.516)" fill="#f0f0f0"/>
    <path id="Path_340" data-name="Path 340" d="M473.174,575.072a37.254,37.254,0,0,0-22.768,2.643,16.043,16.043,0,0,0-4.238,2.7,9.2,9.2,0,0,0-2.519,4.136A19.044,19.044,0,0,1,442.1,588.9a5.634,5.634,0,0,1-3.825,2.568,14.638,14.638,0,0,1-5.815-.344c-2.12-.438-4.315-.926-6.463-.379-.26.066-.348-.341-.088-.408,3.737-.951,7.372,1.081,11.116.869a5.706,5.706,0,0,0,4.511-2.2,14.774,14.774,0,0,0,1.659-4.377,9.818,9.818,0,0,1,2.312-4.136,14.832,14.832,0,0,1,4.118-2.856,36.143,36.143,0,0,1,10.806-3.291,37.914,37.914,0,0,1,12.874.339c.262.053.131.448-.13.4Z" transform="translate(-382.531 -510.715)" fill="#fff"/>
    <path id="Path_341" data-name="Path 341" d="M611.8,552.241a5.589,5.589,0,0,1,2.891-6.635c.241-.117.435.252.193.37a5.176,5.176,0,0,0-2.676,6.178C612.286,552.41,611.878,552.5,611.8,552.241Z" transform="translate(-541.693 -486.424)" fill="#fff"/>
    <path id="Path_342" data-name="Path 342" d="M549.536,642.386a10.773,10.773,0,0,0,7.787,1c.26-.065.348.342.088.408a11.206,11.206,0,0,1-8.1-1.06C549.074,642.606,549.3,642.257,549.536,642.386Z" transform="translate(-488.285 -569.319)" fill="#fff"/>
    <path id="Path_343" data-name="Path 343" d="M693.941,575.094a3.164,3.164,0,0,0,1.651,2.507c.237.127.009.476-.226.35a3.545,3.545,0,0,1-1.832-2.77.216.216,0,0,1,.16-.248A.21.21,0,0,1,693.941,575.094Z" transform="translate(-611.906 -511.561)" fill="#fff"/>
    <path id="Path_344" data-name="Path 344" d="M187.995,500.591c-2-9.647-4.489-12.863-4.489-12.863l-.953-.739-1.146-.89.006-.115-.272-.092-.064-.05-.1-.08-.017.018-.036.037-5.185-1.762-6.578-2.234-3.046-3.959a5.268,5.268,0,0,0-4.214-2.056l-9.728.072a5.268,5.268,0,0,0-3.544,1.406l-6.394,5.931-9.963,4.758-.017-.017-.1.075-1.539.736.064.331-.953.688s-2.494,2.993-4.489,11.969c-.508,2.284-.757,7.184-.848,13.221a2.3,2.3,0,0,0,2.3,2.339h59.855a2.3,2.3,0,0,0,2.3-2.336C188.757,508.407,188.507,503.068,187.995,500.591Z" transform="translate(-124.383 -426.652)" fill="#035a84"/>
    <path id="Path_345" data-name="Path 345" d="M568.923,191.732a7.806,7.806,0,1,0,0,15.612H627.1a7.806,7.806,0,1,0,0-15.612Z" transform="translate(-498.484 -183.319)" fill="#e5e5e5"/>
    <path id="Path_346" data-name="Path 346" d="M578.359,202.747a6.226,6.226,0,1,0,0,12.453h58.174a6.226,6.226,0,0,0,0-12.453Z" transform="translate(-507.92 -192.754)" fill="#fff"/>
    <ellipse id="ab6171fa-7d69-4734-b81c-8dff60f9761b" cx="12.744" cy="12.744" rx="12.744" ry="12.744" transform="translate(21.434 20.01)" fill="#ffc0c9"/>
    <path id="Path_347" data-name="Path 347" d="M339,443.818l-.163-.361.062,0Z" transform="translate(-308.081 -398.943)" fill="#2f2e41"/>
    <path id="Path_348" data-name="Path 348" d="M241.542,240.56a3.547,3.547,0,0,1,2.222-.961c.824.027,1.66.771,1.489,1.578a13.1,13.1,0,0,1,15.76-5.91c2.048.723,4.057,2.168,4.527,4.289a3.863,3.863,0,0,0,.487,1.583,1.807,1.807,0,0,0,1.923.487l.02-.006a.6.6,0,0,1,.728.85l-.58,1.081a4.644,4.644,0,0,0,2.213-.047.6.6,0,0,1,.639.936,10.487,10.487,0,0,1-8.361,4.3c-2.316-.014-4.655-.812-6.908-.28a6,6,0,0,0-4.036,8.424,1.957,1.957,0,0,0-2.739.165,3.756,3.756,0,0,0-.82,2.874,13.335,13.335,0,0,0,1.369,4.476,13.382,13.382,0,0,1-7.932-23.837Z" transform="translate(-220.462 -219.97)" fill="#2f2e41"/>
    <path id="Path_349" data-name="Path 349" d="M87.464,495.253,91.038,514.7l2.145.187Z" transform="translate(-74.921 -424.227)" opacity="0.2"/>
    <path id="Path_350" data-name="Path 350" d="M327.847,485.026l-3.574,20.9-2.145.2Z" transform="translate(-275.931 -415.467)" opacity="0.2"/>
    <path id="Path_351" data-name="Path 351" d="M249.722,147.114a1.27,1.27,0,0,1-1.7-.746,1.29,1.29,0,0,1,.676-1.76,1.355,1.355,0,0,1,1.024,2.506Zm-1.313-3.941-.545.228a.588.588,0,0,1-.747-.274l-.027-.053a4.767,4.767,0,0,1-.2-3.818,4.455,4.455,0,0,0,.244-3.1,1.648,1.648,0,0,0-2.385-.838,2.026,2.026,0,0,0-.905.512.777.777,0,0,1-.562.229.751.751,0,0,1-.537-.236.767.767,0,0,1-.005-1.047,5.956,5.956,0,0,1,2.014-1.383c2.382-.994,3.581.474,4.129,1.788.537,1.285.235,2.478-.25,4.022a3.992,3.992,0,0,0,.079,3.179.585.585,0,0,1-.3.787Z" transform="translate(-225.593 -133.069)" fill="#0183c2"/>
    <path id="Path_352" data-name="Path 352" d="M634.351,268.792H622.777a.279.279,0,1,1,0-.558h11.574a.279.279,0,0,1,0,.558Z" transform="translate(-551.062 -248.85)" fill="#0183c2"/>
    <path id="Path_353" data-name="Path 353" d="M736.732,269.44H725.158a.279.279,0,0,1,0-.558h11.574a.279.279,0,1,1,0,.558Z" transform="translate(-638.76 -249.405)" fill="#0183c2"/>
    <path id="Path_354" data-name="Path 354" d="M839.114,270.088H827.54a.279.279,0,1,1,0-.558h11.574a.279.279,0,0,1,0,.558Z" transform="translate(-726.459 -249.96)" fill="#0183c2"/>
    <path id="Path_355" data-name="Path 355" d="M941.492,270.736H929.918a.279.279,0,0,1,0-.558h11.574a.279.279,0,1,1,0,.558Z" transform="translate(-814.155 -250.515)" fill="#0183c2"/>
    <ellipse id="Ellipse_35" data-name="Ellipse 35" cx="2.151" cy="2.151" rx="2.151" ry="2.151" transform="translate(75.325 13.074)" fill="#0183c2"/>
    <ellipse id="Ellipse_36" data-name="Ellipse 36" cx="2.151" cy="2.151" rx="2.151" ry="2.151" transform="translate(90.097 13.074)" fill="#0183c2"/>
    <ellipse id="Ellipse_37" data-name="Ellipse 37" cx="2.151" cy="2.151" rx="2.151" ry="2.151" transform="translate(104.869 13.074)" fill="#0183c2"/>
    <ellipse id="Ellipse_38" data-name="Ellipse 38" cx="2.151" cy="2.151" rx="2.151" ry="2.151" transform="translate(119.64 13.074)" fill="#0183c2"/>
  </g>
</svg>
