<svg xmlns="http://www.w3.org/2000/svg" width="25.721" height="24" viewBox="0 0 25.721 24">
  <g id="icons8-google_2_" data-name="icons8-google (2)" transform="translate(-4 -4)">
    <path id="Path_361" data-name="Path 361" d="M29.471,13.65H28.435V13.6H16.861v4.8h7.268a7.7,7.7,0,0,1-7.268,4.8A7.472,7.472,0,0,1,9.144,16a7.472,7.472,0,0,1,7.716-7.2,7.994,7.994,0,0,1,5.119,1.823l3.638-3.394A13.311,13.311,0,0,0,16.861,4C9.758,4,4,9.373,4,16S9.758,28,16.861,28s12.861-5.373,12.861-12A11.3,11.3,0,0,0,29.471,13.65Z" fill="#ffc107"/>
    <path id="Path_362" data-name="Path 362" d="M6.306,10.875l4.225,3.1A7.7,7.7,0,0,1,22.8,11.1l3.638-3.638A12.835,12.835,0,0,0,6.306,10.875Z" transform="translate(-0.823)" fill="#ff3d00"/>
    <path id="Path_363" data-name="Path 363" d="M17.644,38.308a12.8,12.8,0,0,0,8.622-3.339L22.286,31.6a7.7,7.7,0,0,1-11.9-3.547L6.195,31.285A12.851,12.851,0,0,0,17.644,38.308Z" transform="translate(-0.784 -10.308)" fill="#4caf50"/>
    <path id="Path_364" data-name="Path 364" d="M36.611,20.053H35.575V20H24v5.144h7.268a7.742,7.742,0,0,1-2.628,3.582h0l3.98,3.368a12.441,12.441,0,0,0,4.238-9.521A12.948,12.948,0,0,0,36.611,20.053Z" transform="translate(-7.139 -7.433)" fill="#1976d2"/>
  </g>
</svg>
