<svg width="14" height="14" viewBox="0 0 14 14" fill="none" xmlns="http://www.w3.org/2000/svg">
<path d="M7.93555 9.86318C7.79243 9.87653 7.64874 9.84424 7.52509 9.7709C7.43475 9.67815 7.39144 9.54939 7.40738 9.4209C7.41071 9.31393 7.42348 9.20745 7.44555 9.10273C7.46691 8.98258 7.4945 8.86363 7.52827 8.74636L7.90372 7.45453C7.94244 7.32703 7.96804 7.19588 7.98009 7.06316C7.98009 6.91999 7.99918 6.82133 7.99918 6.76407C8.00716 6.50887 7.8982 6.26398 7.70327 6.09907C7.46349 5.91499 7.16489 5.82451 6.86327 5.84453C6.64711 5.84778 6.43263 5.88317 6.22689 5.94953C6.00205 6.01953 5.76552 6.10331 5.51735 6.2009L5.40918 6.6209C5.48235 6.59544 5.57146 6.56681 5.67327 6.53499C5.77039 6.50622 5.87107 6.49121 5.97235 6.49044C6.11443 6.47505 6.25744 6.50994 6.37644 6.58907C6.45727 6.68551 6.49519 6.8108 6.48144 6.9359C6.48108 7.0429 6.46935 7.14956 6.44644 7.25407C6.42415 7.36544 6.39552 7.48316 6.36052 7.60724L5.98189 8.90542C5.95138 9.02608 5.92696 9.1482 5.90872 9.27133C5.89385 9.37674 5.88641 9.48305 5.88644 9.5895C5.88488 9.84645 6.00238 10.0896 6.20461 10.2481C6.44808 10.4351 6.75094 10.5277 7.05732 10.509C7.27307 10.5135 7.48807 10.4823 7.6937 10.4168C7.874 10.3552 8.11476 10.2672 8.41598 10.1527L8.51781 9.75176C8.43622 9.78561 8.35219 9.81326 8.26644 9.83447C8.15799 9.85925 8.04665 9.86887 7.93555 9.86318Z" fill="#6620EF"/>
<path d="M8.33299 3.73892C8.15982 3.57989 7.93167 3.49433 7.69662 3.50029C7.46171 3.49499 7.23377 3.58046 7.06025 3.73892C6.74219 4.01318 6.70667 4.49336 6.98095 4.81145C7.0054 4.83981 7.03189 4.8663 7.06025 4.89075C7.42261 5.21485 7.97063 5.21485 8.33296 4.89075C8.65103 4.61378 8.68436 4.13144 8.40739 3.81338C8.38437 3.78688 8.35949 3.762 8.33299 3.73892Z" fill="#6620EF"/>
<path d="M7 0C3.134 0 0 3.134 0 7C0 10.866 3.134 14 7 14C10.866 14 14 10.866 14 7C14 3.134 10.866 0 7 0ZM7 13.3636C3.48545 13.3636 0.636371 10.5145 0.636371 7C0.636371 3.48545 3.48545 0.636371 7 0.636371C10.5145 0.636371 13.3636 3.48545 13.3636 7C13.3636 10.5145 10.5145 13.3636 7 13.3636Z" fill="#6620EF"/>
</svg>
