<svg xmlns="http://www.w3.org/2000/svg" width="19.436" height="19.492" viewBox="0 0 19.436 19.492">
  <path id="icons8-home_2_" data-name="icons8-home (2)" d="M18.387,8.639h0L10.947,1.2a.676.676,0,0,0-.956,0L2.552,8.639h0L1.2,9.991a.676.676,0,1,0,.956.956l.2-.2v8.512a.676.676,0,0,0,.676.676H17.908a.676.676,0,0,0,.676-.676V10.749l.2.2a.676.676,0,1,0,.956-.956ZM8.44,18.584v-5.41H12.5v5.41Zm8.792,0H13.85V12.5a.676.676,0,0,0-.676-.676H7.763a.676.676,0,0,0-.676.676v6.087H3.706V9.4l6.763-6.763L17.232,9.4Z" transform="translate(-0.751 -0.695)" fill="#555" stroke="#555" stroke-width="0.5"/>
</svg>
