<svg xmlns="http://www.w3.org/2000/svg" width="10.905" height="14" viewBox="0 0 10.905 14">
  <path id="icons8-hot-price" d="M23.016,1a2.671,2.671,0,0,0-2.672,2.518c0,.021-.01.041-.01.062V5.23a.31.31,0,1,0,.619,0V3.59a2.071,2.071,0,0,1,1.971-1.971l-.392,1.5a1.336,1.336,0,0,0,.227,1.145l1.661,2.177a4.336,4.336,0,1,1-7.4.784.309.309,0,0,0-.557-.268A4.887,4.887,0,0,0,16,9.048a4.952,4.952,0,1,0,8.914-2.972L23.253,3.889a.734.734,0,0,1-.124-.619l.413-1.589a.555.555,0,0,0-.093-.475A.533.533,0,0,0,23.016,1ZM18.452,4.354a.318.318,0,0,0-.265.123l-.588.784a.309.309,0,0,0,.248.5.308.308,0,0,0,.248-.124l.588-.784a.312.312,0,0,0-.062-.433A.3.3,0,0,0,18.452,4.354ZM19.4,6.675a1.032,1.032,0,1,0,1.032,1.032A1.035,1.035,0,0,0,19.4,6.675Zm3.339.086a.309.309,0,0,0-.213.1L18.92,10.812a.309.309,0,0,0,.021.433.328.328,0,0,0,.206.082.292.292,0,0,0,.227-.1l3.611-3.952a.309.309,0,0,0-.021-.433A.3.3,0,0,0,22.744,6.761ZM19.4,7.294a.413.413,0,1,1-.413.413A.414.414,0,0,1,19.4,7.294Zm3.1,2.063a1.032,1.032,0,1,0,1.032,1.032A1.035,1.035,0,0,0,22.5,9.357Zm0,.619a.413.413,0,1,1-.413.413A.414.414,0,0,1,22.5,9.976Z" transform="translate(-15.5 -0.5)" stroke="#707070" stroke-width="1"/>
</svg>
