<svg xmlns="http://www.w3.org/2000/svg" width="12.431" height="12.43" viewBox="0 0 12.431 12.43">
  <path id="Icon_ionic-ios-call" data-name="Icon ionic-ios-call" d="M16.562,14.235a10.441,10.441,0,0,0-2.181-1.459c-.654-.314-.893-.307-1.356.026-.385.278-.634.537-1.078.44a6.428,6.428,0,0,1-2.165-1.6,6.382,6.382,0,0,1-1.6-2.165c-.094-.447.165-.693.44-1.078.333-.463.343-.7.026-1.356A10.235,10.235,0,0,0,7.187,4.861c-.476-.476-.582-.372-.845-.278a4.806,4.806,0,0,0-.773.411,2.333,2.333,0,0,0-.929.981c-.184.4-.4,1.139.689,3.074A17.154,17.154,0,0,0,8.346,13.07h0l0,0,0,0h0a17.221,17.221,0,0,0,4.022,3.016c1.935,1.087,2.676.874,3.074.689a2.293,2.293,0,0,0,.981-.929,4.806,4.806,0,0,0,.411-.773C16.934,14.818,17.041,14.711,16.562,14.235Z" transform="translate(-4.49 -4.502)"/>
</svg>
