<svg xmlns="http://www.w3.org/2000/svg" width="18" height="18" viewBox="0 0 18 18">
  <path id="icons8-english-to-arabic" d="M5,3A2,2,0,0,0,3,5v7a2,2,0,0,0,2,2h5v5a2,2,0,0,0,2,2h7a2,2,0,0,0,2-2V12a2,2,0,0,0-2-2H14V5a2,2,0,0,0-2-2ZM8.5,5a.883.883,0,0,1,.842.615l1.5,4.762a1.989,1.989,0,0,0-.826,1.51.689.689,0,0,1-.311-.41l-.238-.91H7.535l-.238.91a.7.7,0,1,1-1.348-.387L7.658,5.617A.879.879,0,0,1,8.5,5Zm0,1.895L7.842,9.389H9.15ZM15.213,12a3.175,3.175,0,0,1,1.408.3.321.321,0,0,1-.219.6,3.567,3.567,0,0,0-.889-.127c-.185,0-.711.17-.711.594,0,.532.809.684,1.041.684a6.148,6.148,0,0,0,1.346-.18L16.758,15.5a1.425,1.425,0,0,0-1.586-.232,1.371,1.371,0,0,0-.684,1.518c.415.9,1.665,1.2,2.584,1.3a.321.321,0,0,1,.08.619A4.488,4.488,0,0,1,15.514,19c-1.162,0-2.637-.658-2.637-1.98a2.445,2.445,0,0,1,1.32-1.98,2.3,2.3,0,0,1-.646-1.455A1.8,1.8,0,0,1,15.213,12Z" transform="translate(-3 -3)" fill="#fff"/>
</svg>
