<svg xmlns="http://www.w3.org/2000/svg" width="10.361" height="13.097" viewBox="0 0 10.361 13.097">
  <path id="icons8-location_1_" data-name="icons8-location (1)" d="M84.853,31.063a4.935,4.935,0,0,0-4.929,4.929,6.264,6.264,0,0,0,1.487,3.4c.407.551.867,1.112,1.313,1.655A24.96,24.96,0,0,1,84.6,43.527a.28.28,0,0,0,.238.132h0a.28.28,0,0,0,.238-.132,24.229,24.229,0,0,1,1.92-2.517c.225-.27.457-.55.68-.824,1.267-1.564,2.111-2.876,2.111-4.194A4.936,4.936,0,0,0,84.853,31.063Zm0,.56a4.375,4.375,0,0,1,4.371,4.369c0,1.153-.794,2.37-1.987,3.842-.22.272-.451.55-.675.818-.6.724-1.223,1.469-1.728,2.214-.49-.723-1.092-1.457-1.678-2.171-.441-.537-.9-1.093-1.3-1.632a5.5,5.5,0,0,1-1.378-3.071A4.374,4.374,0,0,1,84.853,31.623Zm0,1.71A2.67,2.67,0,1,0,87.457,36,2.639,2.639,0,0,0,84.855,33.333Zm0,.56A2.11,2.11,0,1,1,82.811,36,2.078,2.078,0,0,1,84.855,33.893Z" transform="translate(-79.674 -30.813)" fill="#2696cc" stroke="#2696cc" stroke-width="0.5"/>
</svg>
