<svg xmlns="http://www.w3.org/2000/svg" width="14.066" height="17.691" viewBox="0 0 14.066 17.691">
  <path id="icons8-location_1_" data-name="icons8-location (1)" d="M86.455,31.062a6.539,6.539,0,0,0-6.531,6.531,8.3,8.3,0,0,0,1.971,4.51c.539.73,1.149,1.474,1.74,2.193a33.074,33.074,0,0,1,2.482,3.281.371.371,0,0,0,.315.175h0a.371.371,0,0,0,.315-.175,32.1,32.1,0,0,1,2.545-3.335c.3-.358.606-.728.9-1.092,1.679-2.073,2.8-3.811,2.8-5.558A6.54,6.54,0,0,0,86.455,31.062Zm0,.742a5.8,5.8,0,0,1,5.792,5.789c0,1.528-1.052,3.14-2.632,5.091-.292.36-.6.728-.894,1.084-.8.96-1.62,1.947-2.289,2.934-.649-.958-1.447-1.931-2.224-2.876-.585-.712-1.189-1.448-1.716-2.163-1.263-1.712-1.826-2.967-1.826-4.07A5.8,5.8,0,0,1,86.455,31.8Zm0,2.266a3.537,3.537,0,1,0,3.448,3.535A3.5,3.5,0,0,0,86.458,34.071Zm0,.742a2.8,2.8,0,1,1-2.707,2.793A2.754,2.754,0,0,1,86.458,34.813Z" transform="translate(-79.424 -30.563)" fill="#2696cc" stroke="#2696cc" stroke-width="1"/>
</svg>
