<svg xmlns="http://www.w3.org/2000/svg" width="17.25" height="19.5" viewBox="0 0 17.25 19.5">
  <path id="icons8-enter" d="M5.5,0A2.251,2.251,0,0,0,3.25,2.25V6h1.5V2.25A.751.751,0,0,1,5.5,1.5H16a.751.751,0,0,1,.75.75v15A.751.751,0,0,1,16,18H5.5a.751.751,0,0,1-.75-.75V13.5H3.25v3.75A2.251,2.251,0,0,0,5.5,19.5H16a2.251,2.251,0,0,0,2.25-2.25v-15A2.251,2.251,0,0,0,16,0ZM6.625,4.852c-.187.056-.375.246-.375.75V7.5H1.75A.751.751,0,0,0,1,8.25v3a.751.751,0,0,0,.75.75h4.5v1.875c0,.961.75.75.75.75L12.625,9.75,7,4.875A.622.622,0,0,0,6.625,4.852Z" transform="translate(-1)" fill="#fff"/>
</svg>
