<svg xmlns="http://www.w3.org/2000/svg" width="12.687" height="23.561" viewBox="0 0 12.687 23.561">
  <path id="icons8-block-microphone" d="M14.343,2a2.67,2.67,0,0,0-2.719,2.719V15.593a2.719,2.719,0,0,0,5.437,0V4.719A2.67,2.67,0,0,0,14.343,2ZM8.892,11.05A.906.906,0,0,0,8,11.968v3.625a6.292,6.292,0,0,0,5.437,6.159v2H10.719a.906.906,0,1,0,0,1.812h7.25a.906.906,0,1,0,0-1.812H15.25v-2a6.291,6.291,0,0,0,5.437-6.159V11.968a.906.906,0,1,0-1.812,0v3.625a4.533,4.533,0,0,1-4.481,4.52.906.906,0,0,0-.1,0,4.533,4.533,0,0,1-4.48-4.52V11.968a.906.906,0,0,0-.92-.919Z" transform="translate(-8 -2)" fill="#2696cc"/>
</svg>
