<svg xmlns="http://www.w3.org/2000/svg" width="141.809" height="141.441" viewBox="0 0 141.809 141.441">
  <g id="Group_25" data-name="Group 25" transform="translate(-228 -105)">
    <ellipse id="Ellipse_92" data-name="Ellipse 92" cx="70.904" cy="4.119" rx="70.904" ry="4.119" transform="translate(228 238.202)" fill="#e6e6e6"/>
    <path id="Path_607" data-name="Path 607" d="M350.795,137.288h-.763v-20.67a12.029,12.029,0,0,0-12.094-11.963H293.665a12.029,12.029,0,0,0-12.094,11.963v113.4a12.029,12.029,0,0,0,12.094,11.963h44.272a12.029,12.029,0,0,0,12.094-11.963V152h.763Z" transform="translate(-42.416 0.345)" fill="#3f3d56"/>
    <path id="Path_608" data-name="Path 608" d="M360.149,128.7V241.929a8.984,8.984,0,0,1-9.032,8.934H306.632a8.984,8.984,0,0,1-9.032-8.934V128.7a8.984,8.984,0,0,1,9.032-8.934h5.4a4.207,4.207,0,0,0,.413,3.97,4.306,4.306,0,0,0,3.56,1.878h25.363a4.306,4.306,0,0,0,3.56-1.878,4.207,4.207,0,0,0,.413-3.97h5.778a8.984,8.984,0,0,1,9.032,8.934Z" transform="translate(-55.107 -11.654)" fill="#fff"/>
    <path id="Path_615" data-name="Path 615" d="M353.915,542.8v25.337a9.172,9.172,0,0,1-9.032,9.3H300.4a9.172,9.172,0,0,1-9.032-9.3V545.268a41.7,41.7,0,0,1,62.549-2.47Z" transform="translate(-48.873 -337.282)" fill="#e6e6e6"/>
    <ellipse id="Ellipse_95" data-name="Ellipse 95" cx="13.162" cy="13.019" rx="13.162" ry="13.019" transform="translate(260.654 204.47)" fill="#2696cc" opacity="0.2"/>
    <ellipse id="Ellipse_96" data-name="Ellipse 96" cx="10.598" cy="10.483" rx="10.598" ry="10.483" transform="translate(263.218 207.006)" fill="#2696cc"/>
    <path id="Path_616" data-name="Path 616" d="M243.882,527.761l-3.735-4.75,2.172-1.671,1.768,2.249,5.974-6.238,2,1.872Z" transform="translate(28.698 -305.79)" fill="#fff"/>
    <g id="Group_24" data-name="Group 24" transform="translate(306.372 181.577)">
      <ellipse id="Ellipse_97" data-name="Ellipse 97" cx="6.872" cy="6.797" rx="6.872" ry="6.797" transform="translate(16.893 6.012)" fill="#2f2e41"/>
      <path id="Path_624" data-name="Path 624" d="M553.859,375.439l.529,2.47,9.885-.845-.781-3.646Z" transform="translate(-527.309 -324.471)" fill="#ffb8b8"/>
      <path id="Path_625" data-name="Path 625" d="M0,.018,7.94,0,7.933,3.1l-4.872.011A3.067,3.067,0,0,1,0,.018Z" transform="matrix(-0.207, -0.978, 0.978, -0.207, 25.763, 58.693)" fill="#2f2e41"/>
      <path id="Path_626" data-name="Path 626" d="M484.181,366.224l-1.113,2.273-9.391-3.163,1.642-3.354Z" transform="translate(-463.824 -315.388)" fill="#ffb8b8"/>
      <path id="Path_627" data-name="Path 627" d="M3.059,0,7.94.021l.013,3.094L0,3.08A3.052,3.052,0,0,1,3.059,0Z" transform="translate(16.462 57.173) rotate(-64.164)" fill="#2f2e41"/>
      <path id="Path_628" data-name="Path 628" d="M683.214,512.287a2.255,2.255,0,0,0,1.833-.468,2.2,2.2,0,0,0,.814-1.69L701.348,496l-3.846-2.947L683.48,507.876a2.222,2.222,0,0,0-.266,4.411Z" transform="translate(-681.361 -465.94)" fill="#ffb8b8"/>
      <ellipse id="Ellipse_98" data-name="Ellipse 98" cx="5.114" cy="5.059" rx="5.114" ry="5.059" transform="translate(17.788 9.795)" fill="#ffb8b8"/>
      <path id="Path_629" data-name="Path 629" d="M752.851,479.742c-3.588,0-7.908-.747-10.574-3.806l-.06-.069.062-.068c.021-.022,1.981-2.239.023-6.192l-2.692.819-2.68-3.5,1.485-4.406,6.076-4.84a5.605,5.605,0,0,1,3.042-1.193,16.843,16.843,0,0,0,5.786-1.63,5.864,5.864,0,0,1,2.665-.577l.12,0a2.082,2.082,0,0,1,1.482.677,2.036,2.036,0,0,1,.526,1.528c-.412,5.279-1.139,18.032,1,22.423l.055.113-.123.031a28.642,28.642,0,0,1-6.189.684Z" transform="translate(-725.359 -435.15)" fill="#2696cc"/>
      <path id="Path_630" data-name="Path 630" d="M706.911,558.376s-13.535-1.236-14.993,2.678.208,5.767,2.707,6.591,8.538,1.854,8.538,1.854l2.707-3.3,7.08.412s7.889,4.526,10.07,9.367a6.4,6.4,0,0,0,5.368,3.756c1.749.12,3.3-.533,3.3-3.236,0-6.179-8.746-15.036-8.746-15.036Z" transform="translate(-689.289 -517.657)" fill="#2f2e41"/>
      <path id="Path_631" data-name="Path 631" d="M716.486,587.839s3.54-1.03,9.162,1.648" transform="translate(-709.172 -541.044)" fill="#2f2e41"/>
      <path id="Path_632" data-name="Path 632" d="M766.843,406.749a15.325,15.325,0,0,0,6.58,2.145l-.694-.822a5.145,5.145,0,0,0,1.574.309,1.732,1.732,0,0,0,1.406-.651,1.571,1.571,0,0,0,.107-1.466,3.011,3.011,0,0,0-.956-1.182,5.74,5.74,0,0,0-5.3-.936,3.405,3.405,0,0,0-1.583,1,1.887,1.887,0,0,0-.388,1.763" transform="translate(-749.043 -395.121)" fill="#2f2e41"/>
      <path id="Path_633" data-name="Path 633" d="M795.309,368.986a15.554,15.554,0,0,1,3.985-5.463,8.08,8.08,0,0,1,3.841-2.052,4.156,4.156,0,0,1,3.98,1.341,5.012,5.012,0,0,1,.784,3.413c-.08,1.19-.349,2.369-.323,3.56a7.29,7.29,0,0,0,3.49,6.052,7.457,7.457,0,0,0,7.032.406,36.654,36.654,0,0,0-3.394,2.6,4.351,4.351,0,0,1-4.021.847c-1.4-.577-2.041-2.146-2.542-3.561l-2.235-6.311a8.452,8.452,0,0,0-1.554-3.016,2.945,2.945,0,0,0-3.1-.929,4.158,4.158,0,0,0-1.8,1.813,4.757,4.757,0,0,1-1.728,1.891,1.584,1.584,0,0,1-2.191-.677" transform="translate(-771.581 -361.401)" fill="#2f2e41"/>
      <path id="Path_636" data-name="Path 636" d="M795,516.669a2.447,2.447,0,0,1-.264-.014,2.265,2.265,0,0,1,.261-4.517,2.23,2.23,0,0,1,.305.022l6.992-7.363-.73-2.407,3.665-1.626,1.027,2.484a4.191,4.191,0,0,1-1.285,4.876l-7.7,6.056a2.08,2.08,0,0,1,.013.222A2.278,2.278,0,0,1,795,516.669Z" transform="translate(-769.514 -472.06)" fill="#ffb8b8"/>
      <path id="Path_637" data-name="Path 637" d="M829.986,458.443h0a1.988,1.988,0,0,1,1.544-.023,1.957,1.957,0,0,1,1.086,1.085l3.617,9.031-5.622,3.708Z" transform="translate(-799.037 -438.322)" fill="#2696cc"/>
    </g>
  </g>
</svg>
