<svg xmlns="http://www.w3.org/2000/svg" xmlns:xlink="http://www.w3.org/1999/xlink" width="135.164" height="113.007" viewBox="0 0 135.164 113.007">
  <defs>
    <filter id="Path_199" x="10.687" y="24.78" width="63.004" height="60.779" filterUnits="userSpaceOnUse">
      <feOffset dy="3" input="SourceAlpha"/>
      <feGaussianBlur stdDeviation="3" result="blur"/>
      <feFlood flood-opacity="0.161"/>
      <feComposite operator="in" in2="blur"/>
      <feComposite in="SourceGraphic"/>
    </filter>
  </defs>
  <g id="Speech_bubble" data-name="Speech bubble" transform="translate(44.873 70.233)">
    <g id="Group_896" data-name="Group 896" transform="translate(-44.873 -70.233)">
      <path id="Path_663" data-name="Path 663" d="M336.579,141.886h-.62v-17a9.837,9.837,0,0,0-9.837-9.837H290.114a9.837,9.837,0,0,0-9.837,9.837h0v93.241a9.837,9.837,0,0,0,9.837,9.837h36.008a9.837,9.837,0,0,0,9.837-9.837h0V153.984h.62Z" transform="translate(-266.678 -115.053)" fill="#3f3d56"/>
      <path id="Path_664" data-name="Path 664" d="M339.882,130.21h-4.7a3.49,3.49,0,0,1-3.231,4.808H311.322a3.49,3.49,0,0,1-3.231-4.808H303.7a7.346,7.346,0,0,0-7.346,7.346v93.1a7.346,7.346,0,0,0,7.346,7.346h36.182a7.346,7.346,0,0,0,7.347-7.346h0v-93.1a7.346,7.346,0,0,0-7.346-7.346Z" transform="translate(-280.041 -127.651)" fill="#fff"/>
      <g id="Group_37" data-name="Group 37" transform="translate(69.195 72.382)">
        <path id="Path_703" data-name="Path 703" d="M640.017,583.053,610.343,553.38c-.683-.682-.978-1.493-.662-1.811l7.7-7.7c.318-.316,1.128-.02,1.811.662l29.673,29.673c.682.682.978,1.493.662,1.811l-7.7,7.7C641.509,584.031,640.7,583.735,640.017,583.053Z" transform="translate(-609.554 -543.744)" fill="#fff"/>
        <circle id="Ellipse_88" data-name="Ellipse 88" cx="3.473" cy="3.473" r="3.473" transform="translate(6.045 6.045)" fill="#2696cc" opacity="0.997"/>
        <path id="Path_703-2" data-name="Path 703" d="M640.017,583.053,610.343,553.38c-.683-.682-.978-1.493-.662-1.811l7.7-7.7c.318-.316,1.128-.02,1.811.662l29.673,29.673c.682.682.978,1.493.662,1.811l-7.7,7.7C641.509,584.031,640.7,583.735,640.017,583.053Zm-21.056-38.291c-.41-.409-.9-.587-1.087-.4l-7.7,7.7c-.19.19-.012.677.4,1.087l29.673,29.673c.409.41.9.587,1.087.4l7.7-7.7c.19-.19.012-.677-.4-1.087Z" transform="translate(-609.554 -543.744)" fill="#e6e6e6"/>
        <path id="Path_705" data-name="Path 705" d="M698.627,618.17a.552.552,0,0,0-.78.78l18.639,18.639a.552.552,0,0,0,.78-.78Z" transform="translate(-682.805 -605.47)" fill="#2696cc"/>
        <path id="Path_706" data-name="Path 706" d="M684.762,632.036a.552.552,0,0,0-.78.78l18.639,18.639a.552.552,0,0,0,.78-.78Z" transform="translate(-671.281 -616.994)" fill="#2696cc"/>
      </g>
      <g id="Group_40" data-name="Group 40" transform="translate(106.593 29.375)">
        <path id="Path_686" data-name="Path 686" d="M860.415,717.006h-2.733l-1.3-10.542h4.034Z" transform="translate(-852.104 -635.983)" fill="#a0616a"/>
        <path id="Path_687" data-name="Path 687" d="M835.379,764.272h6.076v3.319h-8.589v-.805A2.513,2.513,0,0,1,835.379,764.272Z" transform="translate(-832.558 -684.03)" fill="#2f2e41"/>
        <path id="Path_688" data-name="Path 688" d="M925.11,717.006h-2.733l-1.3-10.542h4.034Z" transform="translate(-905.876 -635.983)" fill="#ffc0c9"/>
        <path id="Path_689" data-name="Path 689" d="M900.074,764.272h6.076v3.319H897.56v-.805A2.513,2.513,0,0,1,900.074,764.272Z" transform="translate(-886.329 -684.03)" fill="#2f2e41"/>
        <path id="Path_690" data-name="Path 690" d="M834.594,543.483a2.09,2.09,0,0,0-.18-3.2l1.171-4.631-2.641-1.4-1.562,6.563a2.1,2.1,0,0,0,3.212,2.666Z" transform="translate(-831.045 -492.849)" fill="#ffc0c9"/>
        <path id="Path_691" data-name="Path 691" d="M869.514,541.008l-.223,15.6-.223,20.509-4.9-.446-2.453-28.311-3.121,28.311h-5.063l-.51-28.535L854.8,541.9Z" transform="translate(-849.308 -498.463)" fill="#2f2e41"/>
        <path id="Path_692" data-name="Path 692" d="M860.329,399.879l-.072-.032,2.8-19.118-1.421-5.778a1.265,1.265,0,0,1,.784-1.486l2.557-.959.9-2.484,7.126.768.175,1.942c.772.248,7.131,2.366,6.693,4.778-.433,2.382-2.99,9.875-3.12,10.255l-.448,10.747-.055.027a26.343,26.343,0,0,1-10.315,2.448A13.58,13.58,0,0,1,860.329,399.879Z" transform="translate(-855.325 -356.347)" fill="#ccc"/>
        <path id="Path_693" data-name="Path 693" d="M832.5,419.484l2.247-14.379c.013-.084,1.343-8.5,1.783-11.147.456-2.731,2.569-2.762,2.591-2.762h1.163l1.361,6.123L838.963,409.6l-2.473,10.181Z" transform="translate(-832.254 -373.946)" fill="#ccc"/>
        <path id="Path_694" data-name="Path 694" d="M918.8,521.609a2.09,2.09,0,0,1,2.552-1.939l2.764-3.9,2.777,1.1-3.981,5.447a2.1,2.1,0,0,1-4.112-.714Z" transform="translate(-903.977 -477.49)" fill="#ffc0c9"/>
        <path id="Path_695" data-name="Path 695" d="M936.771,427.714l4.915-8.266-2-5.34,2.727-7.273.1.043a3.653,3.653,0,0,1,1.845,3.2l3.134,9.85-8.364,10.851Z" transform="translate(-918.92 -386.944)" fill="#ccc"/>
        <circle id="Ellipse_109" data-name="Ellipse 109" cx="5.131" cy="5.131" r="5.131" transform="translate(8.703 2.185)" fill="#ffc0c9"/>
        <path id="Path_696" data-name="Path 696" d="M881.414,293.845a3.241,3.241,0,0,0,2.259.878,21.277,21.277,0,0,0,5.778-.472c.118,1.138-.2,2.366.468,3.3a15.33,15.33,0,0,0,.545-3.475,3.328,3.328,0,0,0-.192-1.489,1.369,1.369,0,0,0-1.166-.86,2.924,2.924,0,0,1,1.3-.557l-1.629-.819.418-.43-2.949-.181.854-.543a18.525,18.525,0,0,0-3.882-.122,3.33,3.33,0,0,0-1.716.477,1.24,1.24,0,0,0-.466,1.552,2.253,2.253,0,0,0-1.717,1.362,3.637,3.637,0,0,0-.13,1.748,12.39,12.39,0,0,0,.65,2.749" transform="translate(-871.024 -289.029)" fill="#2f2e41"/>
      </g>
      <path id="Path_138" data-name="Path 138" d="M698.025,672.4h-38.8c-.4,0-.718-.659-.719-1.47v-19.7c0-.812.322-1.469.719-1.47h38.8c.4,0,.718.658.719,1.47v19.7C698.743,671.745,698.421,672.4,698.025,672.4Z" transform="translate(-581.042 -559.485)" fill="#fff"/>
      <g id="Group_38" data-name="Group 38" transform="translate(84.591 94.616)">
        <circle id="Ellipse_7" data-name="Ellipse 7" cx="3.393" cy="3.393" r="3.393" transform="translate(2.674 0.072)" fill="#3f3d56"/>
        <path id="Path_63" data-name="Path 63" d="M717.443,689.351H700.8a.342.342,0,0,1-.062-.005l7.873-13.637a.551.551,0,0,1,.96,0l5.284,9.151.253.438Z" transform="translate(-700.735 -675.429)" fill="#2696cc"/>
        <path id="Path_65" data-name="Path 65" d="M783.709,709.135h-14.4l2.79-4.052.2-.292,3.636-5.281a.736.736,0,0,1,1.093-.065.647.647,0,0,1,.052.065Z" transform="translate(-757.732 -695.213)" fill="#2696cc"/>
      </g>
      <path id="Path_138-2" data-name="Path 138" d="M698.025,672.4h-38.8c-.4,0-.718-.659-.719-1.47v-19.7c0-.812.322-1.469.719-1.47h38.8c.4,0,.718.658.719,1.47v19.7C698.743,671.745,698.421,672.4,698.025,672.4Zm-38.8-22.048c-.238,0-.431.4-.431.882v19.7c0,.487.193.882.431.882h38.8c.238,0,.431-.4.431-.882v-19.7c0-.487-.193-.882-.431-.882Z" transform="translate(-581.042 -559.485)" fill="#e6e6e6"/>
      <rect id="Rectangle_110" data-name="Rectangle 110" width="132.333" height="0.444" transform="translate(0 112.563)" fill="#e6e6e6"/>
    </g>
    <g id="Group_523" data-name="Group 523" transform="translate(-25.244 -39.511)">
      <g id="Group_468" data-name="Group 468">
        <g id="Group_465" data-name="Group 465" transform="translate(0.058 0.058)">
          <g transform="matrix(1, 0, 0, 1, -19.69, -30.78)" filter="url(#Path_199)">
            <path id="Path_199-2" data-name="Path 199" d="M148.125,129.751H130.73l-3.322,4.931-3.242-4.931H107.079a1.978,1.978,0,0,1-1.979-1.979V93.882a1.979,1.979,0,0,1,1.979-1.979h41.046a1.979,1.979,0,0,1,1.979,1.979v33.891A1.979,1.979,0,0,1,148.125,129.751Z" transform="translate(-85.41 -61.12)" fill="#fafafa"/>
          </g>
        </g>
        <g id="Group_467" data-name="Group 467">
          <g id="Group_466" data-name="Group 466">
            <path id="Path_200" data-name="Path 200" d="M147.922,129.548l.109-.008a1.944,1.944,0,0,0,.319-.045,1.976,1.976,0,0,0,1.062-.644,1.937,1.937,0,0,0,.417-.82,2.225,2.225,0,0,0,.046-.258c0-.089.012-.18.01-.275q0-.282,0-.589c0-.816,0-1.758-.005-2.818,0-4.242-.011-10.377-.018-17.958,0-3.791,0-7.943-.007-12.4a1.939,1.939,0,0,0-1.334-1.888,2.344,2.344,0,0,0-.835-.095h-3.509l-7.324,0-15.727,0H106.94c-.091,0-.175.007-.263.01a2.166,2.166,0,0,0-.257.047,1.908,1.908,0,0,0-1.408,1.412,4.075,4.075,0,0,0-.056.96v2.918q0,1.937,0,3.85,0,3.826,0,7.546c0,4.957,0,9.759,0,14.363q0,1.726,0,3.415,0,.422,0,.842a4.486,4.486,0,0,0,.037.824,1.931,1.931,0,0,0,.905,1.279,1.91,1.91,0,0,0,.751.257c.261.027.54.011.809.016h4.784l11.726.006h.024l.013.02,3.239,4.933h-.067l3.326-4.928.011-.016h.019l12.825.016,3.4.009.874,0c.2,0,.3,0,.3,0s-.1,0-.3,0l-.874,0-3.4.009-12.825.016.029-.016-3.318,4.934-.034.05-.033-.051-3.245-4.929.037.02-11.726.006h-4.784c-.273,0-.54.013-.822-.016a2.035,2.035,0,0,1-1.747-1.619,4.57,4.57,0,0,1-.04-.844q0-.42,0-.842,0-1.688,0-3.415c0-4.6,0-9.406,0-14.363q0-3.718,0-7.546v-3.85q0-.969,0-1.943V93.7a2.153,2.153,0,0,1,.059-.5,2.025,2.025,0,0,1,1.494-1.5,2.333,2.333,0,0,1,.273-.049c.092,0,.186-.013.275-.011h14.184l15.727,0,7.324,0,3.509,0a2.443,2.443,0,0,1,.866.1,2.047,2.047,0,0,1,1.243,1.144,2.111,2.111,0,0,1,.157.838c0,4.458,0,8.61-.007,12.4-.008,7.581-.014,13.716-.019,17.958,0,1.06,0,2-.005,2.818q0,.306,0,.589c0,.094-.007.187-.011.278a2.3,2.3,0,0,1-.047.262,1.983,1.983,0,0,1-1.505,1.469,1.813,1.813,0,0,1-.321.04C147.959,129.548,147.922,129.548,147.922,129.548Z" transform="translate(-104.839 -91.642)" fill="none"/>
          </g>
        </g>
      </g>
      <g id="Group_478" data-name="Group 478" transform="translate(7.45 25.554)">
        <rect id="Rectangle_159" data-name="Rectangle 159" width="5.303" height="7.338" rx="2.652" fill="#ebebeb"/>
      </g>
      <g id="Group_503" data-name="Group 503" transform="translate(7.45 25.509)">
        <g id="Group_479" data-name="Group 479" transform="translate(12.658 0.045)">
          <rect id="Rectangle_160" data-name="Rectangle 160" width="5.16" height="7.338" rx="2.58" fill="#ebebeb"/>
        </g>
        <g id="Group_480" data-name="Group 480" transform="translate(6.456 0.045)">
          <path id="Rectangle_161" data-name="Rectangle 161" d="M2.58,0h0A2.58,2.58,0,0,1,5.16,2.58V4.758a2.58,2.58,0,0,1-2.58,2.58h0A2.58,2.58,0,0,1,0,4.758V2.58A2.58,2.58,0,0,1,2.58,0Z" fill="#ebebeb"/>
        </g>
        <g id="Group_481" data-name="Group 481" transform="translate(18.831 0.045)">
          <path id="Rectangle_162" data-name="Rectangle 162" d="M2.653,0h0A2.653,2.653,0,0,1,5.306,2.653V4.685A2.653,2.653,0,0,1,2.653,7.338h0A2.653,2.653,0,0,1,0,4.686V2.653A2.653,2.653,0,0,1,2.653,0Z" fill="#ebebeb"/>
        </g>
        <g id="Group_482" data-name="Group 482" transform="translate(24.916 0.045)">
          <path id="Rectangle_163" data-name="Rectangle 163" d="M2.653,0h0A2.653,2.653,0,0,1,5.306,2.653V4.685A2.653,2.653,0,0,1,2.653,7.338h0A2.653,2.653,0,0,1,0,4.685V2.653A2.653,2.653,0,0,1,2.653,0Z" fill="#ebebeb"/>
        </g>
        <g id="Group_484" data-name="Group 484" transform="translate(1.779 2.489)">
          <g id="Group_483" data-name="Group 483">
            <path id="Path_209" data-name="Path 209" d="M147.64,217.793l.567.307-.255.427-.573-.339.011.63H146.9l.005-.635-.573.344-.25-.427.567-.307-.567-.312.25-.427.573.344-.005-.635h.489l-.011.635.573-.344.255.427Z" transform="translate(-146.083 -216.762)" fill="#2696cc"/>
          </g>
        </g>
        <g id="Group_486" data-name="Group 486" transform="translate(7.961 2.455)">
          <g id="Group_485" data-name="Group 485">
            <path id="Path_210" data-name="Path 210" d="M175.264,217.641l.567.307-.255.427-.573-.338.011.63h-.489l.005-.635-.573.343-.25-.427.567-.307-.567-.312.25-.427.573.343-.005-.635h.489l-.011.635.573-.343.255.427Z" transform="translate(-173.708 -216.61)" fill="#2696cc"/>
          </g>
        </g>
        <g id="Group_488" data-name="Group 488" transform="translate(14.291 2.455)">
          <g id="Group_487" data-name="Group 487">
            <path id="Path_211" data-name="Path 211" d="M203.554,217.641l.567.307-.255.427-.572-.338.01.63h-.489l.005-.635-.572.343-.25-.427.567-.307-.567-.312.25-.427.572.343-.005-.635h.489l-.01.635.572-.343.255.427Z" transform="translate(-201.998 -216.61)" fill="#2696cc"/>
          </g>
        </g>
        <g id="Group_490" data-name="Group 490" transform="translate(20.423 2.455)">
          <g id="Group_489" data-name="Group 489">
            <path id="Path_212" data-name="Path 212" d="M230.957,217.641l.567.307-.255.427-.573-.338.01.63h-.489l.005-.635-.573.343-.25-.427.567-.307-.567-.312.25-.427.573.343-.005-.635h.489l-.01.635.573-.343.255.427Z" transform="translate(-229.401 -216.61)" fill="#2696cc"/>
          </g>
        </g>
        <g id="Group_492" data-name="Group 492">
          <g id="Group_491" data-name="Group 491">
            <path id="Path_213" data-name="Path 213" d="M142.156,213.069h-2.744a1.281,1.281,0,0,1-1.279-1.279v-4.87a1.281,1.281,0,0,1,1.279-1.279h2.744a1.281,1.281,0,0,1,1.279,1.279v4.87A1.281,1.281,0,0,1,142.156,213.069Zm-2.744-7.338a1.19,1.19,0,0,0-1.189,1.189v4.87a1.19,1.19,0,0,0,1.189,1.189h2.744a1.19,1.19,0,0,0,1.189-1.189v-4.87a1.19,1.19,0,0,0-1.189-1.189Z" transform="translate(-138.132 -205.64)" fill="#263238"/>
          </g>
        </g>
        <g id="Group_494" data-name="Group 494" transform="translate(6.371)">
          <g id="Group_493" data-name="Group 493">
            <path id="Path_214" data-name="Path 214" d="M170.628,213.069h-2.744a1.281,1.281,0,0,1-1.279-1.279v-4.87a1.281,1.281,0,0,1,1.279-1.279h2.744a1.281,1.281,0,0,1,1.279,1.279v4.87A1.281,1.281,0,0,1,170.628,213.069Zm-2.744-7.338a1.19,1.19,0,0,0-1.189,1.189v4.87a1.19,1.19,0,0,0,1.189,1.189h2.744a1.19,1.19,0,0,0,1.189-1.189v-4.87a1.19,1.19,0,0,0-1.189-1.189Z" transform="translate(-166.604 -205.64)" fill="#263238"/>
          </g>
        </g>
        <g id="Group_496" data-name="Group 496" transform="translate(12.567)">
          <g id="Group_495" data-name="Group 495">
            <path id="Path_215" data-name="Path 215" d="M198.318,213.069h-2.744a1.281,1.281,0,0,1-1.279-1.279v-4.87a1.281,1.281,0,0,1,1.279-1.279h2.744a1.281,1.281,0,0,1,1.279,1.279v4.87A1.281,1.281,0,0,1,198.318,213.069Zm-2.744-7.338a1.19,1.19,0,0,0-1.189,1.189v4.87a1.19,1.19,0,0,0,1.189,1.189h2.744a1.19,1.19,0,0,0,1.189-1.189v-4.87a1.19,1.19,0,0,0-1.189-1.189Z" transform="translate(-194.294 -205.64)" fill="#263238"/>
          </g>
        </g>
        <g id="Group_498" data-name="Group 498" transform="translate(18.833)">
          <g id="Group_497" data-name="Group 497">
            <path id="Path_216" data-name="Path 216" d="M226.322,213.069h-2.744a1.281,1.281,0,0,1-1.279-1.279v-4.87a1.281,1.281,0,0,1,1.279-1.279h2.744a1.281,1.281,0,0,1,1.279,1.279v4.87A1.281,1.281,0,0,1,226.322,213.069Zm-2.744-7.338a1.19,1.19,0,0,0-1.189,1.189v4.87a1.19,1.19,0,0,0,1.189,1.189h2.744a1.19,1.19,0,0,0,1.189-1.189v-4.87a1.19,1.19,0,0,0-1.189-1.189Z" transform="translate(-222.298 -205.64)" fill="#263238"/>
          </g>
        </g>
        <g id="Group_500" data-name="Group 500" transform="translate(24.918)">
          <g id="Group_499" data-name="Group 499">
            <path id="Path_217" data-name="Path 217" d="M253.513,213.069h-2.744a1.281,1.281,0,0,1-1.279-1.279v-4.87a1.281,1.281,0,0,1,1.279-1.279h2.744a1.281,1.281,0,0,1,1.279,1.279v4.87A1.281,1.281,0,0,1,253.513,213.069Zm-2.744-7.338a1.19,1.19,0,0,0-1.189,1.189v4.87a1.19,1.19,0,0,0,1.189,1.189h2.744a1.19,1.19,0,0,0,1.189-1.189v-4.87a1.19,1.19,0,0,0-1.189-1.189Z" transform="translate(-249.489 -205.64)" fill="#263238"/>
          </g>
        </g>
        <g id="Group_502" data-name="Group 502" transform="translate(26.099 5.423)">
          <g id="Group_501" data-name="Group 501">
            <path id="Path_218" data-name="Path 218" d="M257.71,229.932a18.522,18.522,0,0,1-2.94,0,18.595,18.595,0,0,1,2.94,0Z" transform="translate(-254.77 -229.874)" fill="#2696cc"/>
          </g>
        </g>
      </g>
      <g id="Group_517" data-name="Group 517" transform="translate(15.08 4.295)">
        <g id="Group_505" data-name="Group 505" transform="translate(0 0)">
          <g id="Group_504" data-name="Group 504">
            <circle id="Ellipse_27" data-name="Ellipse 27" cx="5.927" cy="5.927" r="5.927" transform="translate(0 4.464) rotate(-22.122)" fill="#2696cc"/>
          </g>
        </g>
        <g id="Group_516" data-name="Group 516" transform="translate(5.765 4.935)">
          <g id="Group_507" data-name="Group 507" transform="translate(0.815)">
            <g id="Group_506" data-name="Group 506">
              <path id="Path_219" data-name="Path 219" d="M201.739,134.6h-.1v-.553a1.156,1.156,0,0,1,2.312,0v.451h-.1v-.451a1.057,1.057,0,1,0-2.115,0Z" transform="translate(-201.64 -132.893)" fill="#fff" stroke="#fff" stroke-width="1"/>
            </g>
          </g>
          <g id="Group_515" data-name="Group 515" transform="translate(0 1.66)">
            <g id="Group_509" data-name="Group 509">
              <g id="Group_508" data-name="Group 508">
                <path id="Path_220" data-name="Path 220" d="M201.424,144.225h-2.939a.488.488,0,0,1-.488-.488V140.8a.488.488,0,0,1,.488-.488h2.939a.488.488,0,0,1,.488.488v2.939A.488.488,0,0,1,201.424,144.225Zm-2.939-3.815a.389.389,0,0,0-.389.389v2.939a.389.389,0,0,0,.389.389h2.939a.389.389,0,0,0,.389-.389V140.8a.389.389,0,0,0-.389-.389Z" transform="translate(-197.997 -140.311)" fill="#fff" stroke="#fff" stroke-width="1"/>
              </g>
            </g>
            <g id="Group_514" data-name="Group 514" transform="translate(1.51 1.131)">
              <g id="Group_511" data-name="Group 511">
                <g id="Group_510" data-name="Group 510">
                  <path id="Path_221" data-name="Path 221" d="M205.206,146.288a.461.461,0,1,1,.461-.461A.462.462,0,0,1,205.206,146.288Zm0-.824a.363.363,0,1,0,.363.363A.363.363,0,0,0,205.206,145.464Z" transform="translate(-204.745 -145.365)" fill="#fff" stroke="#fff" stroke-width="1"/>
                </g>
              </g>
              <g id="Group_513" data-name="Group 513" transform="translate(0.398 0.852)">
                <g id="Group_512" data-name="Group 512">
                  <rect id="Rectangle_164" data-name="Rectangle 164" width="0.099" height="0.833" fill="#fff" stroke="#fff" stroke-width="1"/>
                </g>
              </g>
            </g>
          </g>
        </g>
      </g>
      <g id="Group_522" data-name="Group 522" transform="translate(38.498 0.832)">
        <g id="Group_518" data-name="Group 518" transform="translate(0 0)">
          <circle id="Ellipse_28" data-name="Ellipse 28" cx="1.831" cy="1.831" r="1.831" transform="translate(0 2.589) rotate(-45)" fill="#e0e0e0"/>
        </g>
        <g id="Group_521" data-name="Group 521" transform="translate(1.94 1.94)">
          <g id="Group_519" data-name="Group 519">
            <path id="Path_222" data-name="Path 222" d="M285.612,105.326a.056.056,0,0,1-.04-.1l1.185-1.185a.056.056,0,0,1,.079.079l-1.185,1.185A.056.056,0,0,1,285.612,105.326Z" transform="translate(-285.556 -104.029)" fill="#fff"/>
          </g>
          <g id="Group_520" data-name="Group 520">
            <path id="Path_223" data-name="Path 223" d="M286.8,105.326a.056.056,0,0,1-.04-.017l-1.185-1.185a.056.056,0,1,1,.079-.079l1.185,1.185a.056.056,0,0,1-.04.1Z" transform="translate(-285.556 -104.029)" fill="#fff"/>
          </g>
        </g>
      </g>
      <text id="OTP" transform="translate(19.363 21.072)" font-size="2" font-family="Roboto-Bold, Roboto" font-weight="700"><tspan x="0" y="0">OTP</tspan></text>
    </g>
  </g>
</svg>
