<svg xmlns="http://www.w3.org/2000/svg" width="13.991" height="14.728" viewBox="0 0 13.991 14.728">
  <path id="icons8-profile" d="M5.682,2A1.477,1.477,0,0,0,4.209,3.473v2.2a3.69,3.69,0,0,1,4.87,5.51c2,.579,3.23,1.838,3.23,3.492v2.048h2.209a1.477,1.477,0,0,0,1.473-1.473V6.418L11.573,2Zm5.155,1.1,4.05,4.05h-4.05ZM6.418,6.418A2.209,2.209,0,1,0,8.627,8.627,2.22,2.22,0,0,0,6.418,6.418Zm0,5.891a7.419,7.419,0,0,0-2.887.515,3.062,3.062,0,0,0-1.037.686A1.727,1.727,0,0,0,2,14.678v2.049h8.837V14.678a1.727,1.727,0,0,0-.495-1.168A3.062,3.062,0,0,0,9.3,12.824,7.419,7.419,0,0,0,6.418,12.309Z" transform="translate(-2 -2)" fill="#fff"/>
</svg>
