<svg xmlns="http://www.w3.org/2000/svg" width="31" height="16.663" viewBox="0 0 31 16.663">
  <path id="icons8-review" d="M15.5,111a8.331,8.331,0,1,0,8.331,8.331A8.341,8.341,0,0,0,15.5,111Zm9.347,2.256a5.977,5.977,0,0,0-1.206.14.517.517,0,0,0-.319.792,9.314,9.314,0,0,1,.664,1.186.52.52,0,0,0,.61.282,1.236,1.236,0,0,1,1.441.645l.4.814a.2.2,0,0,0,.153.112l.9.13a1.237,1.237,0,0,1,.685,2.11l-.65.634a.2.2,0,0,0-.059.18l.154.9a1.237,1.237,0,0,1-1.795,1.3l-.8-.423a.206.206,0,0,0-.19,0l-.266.14a.52.52,0,0,0-.248.283,9.319,9.319,0,0,1-1,1.993.517.517,0,0,0,.319.791,6.074,6.074,0,1,0,1.206-12.01Zm-18.692,0a6.074,6.074,0,1,0,1.2,12.009.517.517,0,0,0,.319-.791,9.32,9.32,0,0,1-1-1.994.519.519,0,0,0-.248-.283l-.266-.14a.205.205,0,0,0-.19,0l-.8.423a1.237,1.237,0,0,1-1.795-1.3l.154-.9a.2.2,0,0,0-.059-.18l-.65-.634a1.237,1.237,0,0,1,.685-2.11l.9-.13a.2.2,0,0,0,.153-.112l.4-.814a1.236,1.236,0,0,1,1.441-.645.52.52,0,0,0,.611-.281,9.306,9.306,0,0,1,.664-1.186.518.518,0,0,0-.319-.792A5.978,5.978,0,0,0,6.155,113.257Zm9.344.783a1.576,1.576,0,0,1,1.43.889l.6,1.219a.56.56,0,0,0,.422.307l1.346.2a1.6,1.6,0,0,1,.884,2.72l-.974.949a.561.561,0,0,0-.161.5l.23,1.34a1.6,1.6,0,0,1-2.314,1.681l-1.2-.633a.56.56,0,0,0-.522,0l-1.2.633a1.6,1.6,0,0,1-2.314-1.681l.23-1.34a.561.561,0,0,0-.161-.5l-.974-.949a1.6,1.6,0,0,1,.884-2.72l1.346-.2a.56.56,0,0,0,.422-.307l.6-1.219A1.577,1.577,0,0,1,15.5,114.04Zm0,1.033a.554.554,0,0,0-.5.314l-.6,1.219a1.6,1.6,0,0,1-1.2.873l-1.346.2a.561.561,0,0,0-.311.957l.974.949a1.592,1.592,0,0,1,.458,1.411l-.23,1.341a.561.561,0,0,0,.814.591l1.2-.633a1.593,1.593,0,0,1,1.484,0l1.2.633a.561.561,0,0,0,.814-.591l-.23-1.341a1.592,1.592,0,0,1,.458-1.411l.974-.949a.561.561,0,0,0-.311-.957l-1.346-.2a1.6,1.6,0,0,1-1.2-.873l-.6-1.219A.554.554,0,0,0,15.5,115.072Zm-9.429,1.572a.2.2,0,0,0-.183.114l-.4.815a1.236,1.236,0,0,1-.931.676l-.9.131a.2.2,0,0,0-.112.347l.65.634a1.235,1.235,0,0,1,.356,1.095l-.154.9a.2.2,0,0,0,.3.214,4.547,4.547,0,0,1,1.121-.537.513.513,0,0,0,.391-.568,9.414,9.414,0,0,1,.164-3.2.661.661,0,0,0-.113-.5A.2.2,0,0,0,6.071,116.644Zm18.858,0a.2.2,0,0,0-.183.114.661.661,0,0,0-.114.5,9.415,9.415,0,0,1,.164,3.205.513.513,0,0,0,.391.568,4.552,4.552,0,0,1,1.121.537.2.2,0,0,0,.3-.214l-.154-.9a1.235,1.235,0,0,1,.356-1.095l.65-.634a.2.2,0,0,0-.112-.347l-.9-.131a1.236,1.236,0,0,1-.931-.676l-.4-.815A.2.2,0,0,0,24.929,116.644Z" transform="translate(0 -111)" fill="#2696cc"/>
</svg>
