<svg xmlns="http://www.w3.org/2000/svg" width="60.583" height="60.583" viewBox="0 0 60.583 60.583">
  <g id="icons8-approval_1_" data-name="icons8-approval (1)" transform="translate(-11 -11)">
    <path id="Path_310" data-name="Path 310" d="M12.553,27a1.553,1.553,0,1,0,1.553,1.553A1.553,1.553,0,0,0,12.553,27Z" transform="translate(0 -3.573)" fill="#88ae45"/>
    <path id="Path_311" data-name="Path 311" d="M76.777,12a.777.777,0,1,0,.777.777A.777.777,0,0,0,76.777,12Z" transform="translate(-14.514 -0.223)" fill="#f1bc19"/>
    <path id="Path_312" data-name="Path 312" d="M41.738,13A28.738,28.738,0,1,0,70.476,41.738,28.738,28.738,0,0,0,41.738,13Z" transform="translate(-0.447 -0.447)" fill="#e6edb7"/>
    <path id="Path_313" data-name="Path 313" d="M82.107,11a3.107,3.107,0,1,0,3.107,3.107A3.107,3.107,0,0,0,82.107,11Z" transform="translate(-15.184)" fill="#f1bc19"/>
    <path id="Path_314" data-name="Path 314" d="M86.553,22a1.553,1.553,0,1,0,1.553,1.553A1.553,1.553,0,0,0,86.553,22Z" transform="translate(-16.524 -2.456)" fill="#88ae45"/>
    <path id="Path_315" data-name="Path 315" d="M65.369,70.651A1.553,1.553,0,1,0,66.923,72.2,1.553,1.553,0,0,0,65.369,70.651ZM14.107,59a3.107,3.107,0,1,0,3.107,3.107A3.107,3.107,0,0,0,14.107,59Z" transform="translate(0 -10.718)" fill="#fbcd59"/>
    <path id="Path_316" data-name="Path 316" d="M24.553,85a1.553,1.553,0,1,0,1.553,1.553A1.553,1.553,0,0,0,24.553,85Z" transform="translate(-2.68 -16.524)" fill="#88ae45"/>
    <path id="Path_317" data-name="Path 317" d="M17.942,51a1.942,1.942,0,1,0,1.942,1.942A1.942,1.942,0,0,0,17.942,51Z" transform="translate(-1.116 -8.932)" fill="#fff"/>
    <path id="Path_318" data-name="Path 318" d="M20.777,66a.777.777,0,1,0,.777.777A.777.777,0,0,0,20.777,66Z" transform="translate(-2.01 -12.281)" fill="#f1bc19"/>
    <path id="Path_319" data-name="Path 319" d="M79.777,33a.777.777,0,1,0,.777.777A.777.777,0,0,0,79.777,33Z" transform="translate(-15.184 -4.912)" fill="#fff"/>
    <g id="Group_893" data-name="Group 893" transform="translate(21.874 21.874)">
      <path id="Path_320" data-name="Path 320" d="M44.65,26.042A18.608,18.608,0,1,0,63.259,44.65,18.608,18.608,0,0,0,44.65,26.042Z" transform="translate(-25.233 -25.233)" fill="#fdfcee"/>
      <path id="Path_321" data-name="Path 321" d="M44.418,26.087a18.33,18.33,0,1,1-18.33,18.33,18.351,18.351,0,0,1,18.33-18.33m0-1.087A19.418,19.418,0,1,0,63.835,44.418,19.418,19.418,0,0,0,44.418,25Z" transform="translate(-25 -25)" fill="#472b29"/>
      <path id="Path_322" data-name="Path 322" d="M45.617,30.375A15.244,15.244,0,1,0,60.86,45.619,15.244,15.244,0,0,0,45.617,30.375Z" transform="translate(-26.2 -26.2)" fill="#93bc39"/>
      <path id="Path_323" data-name="Path 323" d="M45.617,32.705A15.234,15.234,0,0,1,60.8,46.784c.03-.386.059-.772.059-1.165a15.244,15.244,0,0,0-30.487,0c0,.393.03.779.059,1.165A15.235,15.235,0,0,1,45.617,32.705Z" transform="translate(-26.2 -26.2)" fill="#c0d078"/>
      <path id="Path_324" data-name="Path 324" d="M45.533,30.583A14.952,14.952,0,1,1,30.583,45.533,14.968,14.968,0,0,1,45.533,30.583m0-.583A15.534,15.534,0,1,0,61.068,45.533,15.551,15.551,0,0,0,45.533,30Z" transform="translate(-26.116 -26.116)" fill="#472b29"/>
    </g>
    <g id="Group_894" data-name="Group 894" transform="translate(32.748 35.855)">
      <path id="Path_325" data-name="Path 325" d="M40.665,47.387a1.165,1.165,0,0,0-.824,1.989l5.437,5.437a1.161,1.161,0,0,0,.824.341,1.183,1.183,0,0,0,.858-.377l8.544-9.32a1.165,1.165,0,0,0-.071-1.646,1.2,1.2,0,0,0-1.646.071l-7.722,8.423-4.576-4.576A1.154,1.154,0,0,0,40.665,47.387Z" transform="translate(-39.112 -43.115)" fill="#fdfcee"/>
      <path id="Path_326" data-name="Path 326" d="M54.534,43.583h0a.971.971,0,0,1,.716,1.627l-8.544,9.32a.985.985,0,0,1-.715.315.965.965,0,0,1-.687-.284l-5.437-5.437A.971.971,0,1,1,41.24,47.75l4.72,4.72L53.819,43.9a.959.959,0,0,1,.715-.315m0-.583a1.546,1.546,0,0,0-1.145.5l-7.448,8.124-4.29-4.29a1.553,1.553,0,1,0-2.2,2.2l5.437,5.437a1.551,1.551,0,0,0,1.1.455h.033a1.555,1.555,0,0,0,1.111-.5l8.544-9.32A1.554,1.554,0,0,0,54.534,43Z" transform="translate(-39 -43)" fill="#472b29"/>
    </g>
  </g>
</svg>
