<svg xmlns="http://www.w3.org/2000/svg" width="13" height="13" viewBox="0 0 13 13">
  <path id="icons8-bag" d="M8.5,2A3.218,3.218,0,0,0,5.25,5.25h1.3a1.95,1.95,0,0,1,3.9,0h1.3A3.218,3.218,0,0,0,8.5,2ZM3.3,5.9,2.711,9.536a1.459,1.459,0,0,0,.528.589,2.436,2.436,0,0,0,.711.325.892.892,0,0,0,.447.122,14.555,14.555,0,0,0,3.514.467.65.65,0,0,0,1.3,0,12.894,12.894,0,0,0,3.636-.528.341.341,0,0,0,.264-.122,3.537,3.537,0,0,0,.853-.467,1.145,1.145,0,0,0,.325-.447L13.7,5.9ZM4.336,7.2H12.6l.244,1.95A11.267,11.267,0,0,1,8.5,9.8a12.108,12.108,0,0,1-4.428-.65Zm10.075,3.453a3.923,3.923,0,0,1-.914.447c-.129.066-.2.056-.325.122l.264,1.828H3.564L3.828,11.3c-.2-.066-.333-.137-.528-.2a4.215,4.215,0,0,1-.772-.386L2,14.35H3.95V15h1.3v-.65h6.5V15h1.3v-.65H15Z" transform="translate(-2 -2)" fill="#707070"/>
</svg>
