<svg xmlns="http://www.w3.org/2000/svg" width="14.968" height="12.442" viewBox="0 0 14.968 12.442">
  <path id="Icon_awesome-store" data-name="Icon awesome-store" d="M14.632,2.882,13.055.365A.778.778,0,0,0,12.4,0H2.579A.778.778,0,0,0,1.92.365L.343,2.882A2.168,2.168,0,0,0,1.772,6.2a2.526,2.526,0,0,0,.333.022,2.4,2.4,0,0,0,1.793-.8,2.4,2.4,0,0,0,3.587,0,2.4,2.4,0,0,0,3.587,0,2.408,2.408,0,0,0,1.793.8A2.5,2.5,0,0,0,13.2,6.2,2.166,2.166,0,0,0,14.632,2.882ZM12.87,7a3.083,3.083,0,0,1-.717-.092V9.332H2.822V6.906A3.219,3.219,0,0,1,2.1,7a3.279,3.279,0,0,1-.437-.029,3.056,3.056,0,0,1-.4-.087v4.783a.777.777,0,0,0,.778.778H12.933a.777.777,0,0,0,.778-.778V6.882a2.481,2.481,0,0,1-.4.087A3.38,3.38,0,0,1,12.87,7Z" transform="translate(-0.004)"/>
</svg>
