<svg xmlns="http://www.w3.org/2000/svg" width="8.378" height="8.378" viewBox="0 0 8.378 8.378">
  <path id="icons8-time-machine" d="M6.253,2A4.167,4.167,0,0,0,3.172,3.295l-.814-.814A.209.209,0,0,0,2,2.629V4.514a.419.419,0,0,0,.419.419H4.3a.209.209,0,0,0,.148-.358L3.766,3.89a3.341,3.341,0,1,1-.909,2.662.412.412,0,0,0-.412-.362.423.423,0,0,0-.419.47A4.19,4.19,0,1,0,6.938,2.066,4.361,4.361,0,0,0,6.253,2ZM6.189,3.676A.419.419,0,0,0,5.77,4.1V6.19a.418.418,0,0,0,.123.3l.961.961a.419.419,0,0,0,.592-.592l-.838-.838V4.1A.419.419,0,0,0,6.189,3.676Z" transform="translate(-2 -2.001)" fill="#828282"/>
</svg>
