<svg xmlns="http://www.w3.org/2000/svg" width="15.265" height="17.957" viewBox="0 0 15.265 17.957">
  <path id="icons8-up-down-arrow" d="M17.069,14.579a.39.39,0,0,0-.565,0L14.5,16.584V5.71a.4.4,0,0,0-.807,0V16.584l-2.005-2.005a.4.4,0,1,0-.565.565l2.692,2.692a.39.39,0,0,0,.565,0l2.692-2.692A.39.39,0,0,0,17.069,14.579ZM25.144,3.813,22.452,1.121a.39.39,0,0,0-.565,0L19.2,3.813a.4.4,0,1,0,.565.565l2.005-2.005V13.246a.4.4,0,1,0,.807,0V2.373l2.005,2.005a.39.39,0,0,0,.565,0A.39.39,0,0,0,25.144,3.813Z" transform="translate(-10.5 -0.5)" fill="#a3a3a3" stroke="#888" stroke-width="1"/>
</svg>
