<svg xmlns="http://www.w3.org/2000/svg" xmlns:xlink="http://www.w3.org/1999/xlink" width="9.015" height="9.015" viewBox="0 0 9.015 9.015">
  <defs>
    <linearGradient id="linear-gradient" x1="0.16" y1="-14.41" x2="0.849" y2="-15.099" gradientUnits="objectBoundingBox">
      <stop offset="0" stop-color="#75daff"/>
      <stop offset="1" stop-color="#1ea2e4"/>
    </linearGradient>
  </defs>
  <g id="icons8-verified-badge" transform="translate(-4 -4)">
    <path id="Path_365" data-name="Path 365" d="M9.033,4.137l.561.315.643.008a1.075,1.075,0,0,1,.91.525l.329.553.553.329a1.074,1.074,0,0,1,.525.91l.008.643.315.561a1.075,1.075,0,0,1,0,1.051l-.315.561-.008.643a1.075,1.075,0,0,1-.525.91l-.553.329-.329.553a1.074,1.074,0,0,1-.91.525l-.643.008-.561.315a1.075,1.075,0,0,1-1.051,0l-.561-.315-.643-.008a1.075,1.075,0,0,1-.91-.525l-.329-.553-.553-.329a1.074,1.074,0,0,1-.525-.91l-.008-.643-.315-.561a1.075,1.075,0,0,1,0-1.051l.315-.561.008-.643a1.075,1.075,0,0,1,.525-.91l.553-.329.329-.553a1.074,1.074,0,0,1,.91-.525l.643-.008.561-.315A1.075,1.075,0,0,1,9.033,4.137Z" transform="translate(0 0)" fill="url(#linear-gradient)"/>
    <path id="Path_366" data-name="Path 366" d="M16.547,15.718l-2.293,2.293-1.166-1.166a.451.451,0,0,0-.637,0l-.319.319a.451.451,0,0,0,0,.637l1.8,1.8a.451.451,0,0,0,.637,0l2.93-2.93a.451.451,0,0,0,0-.637l-.319-.319A.451.451,0,0,0,16.547,15.718Z" transform="translate(-6.197 -8.975)" opacity="0.05"/>
    <path id="Path_367" data-name="Path 367" d="M14.4,19.912l-1.8-1.8a.338.338,0,0,1,0-.478l.319-.319a.338.338,0,0,1,.478,0l1.246,1.245,2.372-2.372a.338.338,0,0,1,.478,0l.319.319a.338.338,0,0,1,0,.478l-2.93,2.93A.338.338,0,0,1,14.4,19.912Z" transform="translate(-6.584 -9.362)" opacity="0.07"/>
    <path id="Path_368" data-name="Path 368" d="M14.869,20.219l-1.8-1.8a.225.225,0,0,1,0-.319l.319-.319a.225.225,0,0,1,.319,0L15.028,19.1l2.452-2.452a.225.225,0,0,1,.319,0l.319.319a.225.225,0,0,1,0,.319l-2.93,2.93A.225.225,0,0,1,14.869,20.219Z" transform="translate(-6.971 -9.749)" fill="#fff"/>
  </g>
</svg>
