<svg xmlns="http://www.w3.org/2000/svg" width="15.887" height="11.666" viewBox="0 0 15.887 11.666">
  <path id="icons8-eye" d="M8.676,4C3.094,4,1,9.583,1,9.583s2.094,5.583,7.676,5.583,7.676-5.583,7.676-5.583S14.259,4,8.676,4Zm0,1.4c3.682,0,5.544,2.978,6.147,4.184-.6,1.2-2.48,4.19-6.147,4.19S3.132,10.792,2.529,9.586C3.134,8.387,5.009,5.4,8.676,5.4Zm0,1.4a2.791,2.791,0,1,0,2.791,2.791A2.792,2.792,0,0,0,8.676,6.791Zm0,1.4a1.4,1.4,0,1,1-1.4,1.4A1.4,1.4,0,0,1,8.676,8.187Z" transform="translate(-0.733 -3.75)" fill="#707070" stroke="#707070" stroke-width="0.5"/>
</svg>
