<svg xmlns="http://www.w3.org/2000/svg" width="16.006" height="16.006" viewBox="0 0 16.006 16.006">
  <path id="icons8-view-all" d="M3.6,2A1.6,1.6,0,0,0,2,3.6v4A1.613,1.613,0,0,0,3.6,9.2h4A1.612,1.612,0,0,0,9.2,7.6v-4A1.6,1.6,0,0,0,7.6,2Zm8.8,0a1.6,1.6,0,0,0-1.6,1.6v4a1.612,1.612,0,0,0,1.6,1.6h4a1.612,1.612,0,0,0,1.6-1.6v-4a1.6,1.6,0,0,0-1.6-1.6ZM3.6,5.2h4V7.6h-4Zm8.8,0h4V7.6h-4ZM3.6,10.8A1.6,1.6,0,0,0,2,12.4v4a1.613,1.613,0,0,0,1.6,1.6h4a1.612,1.612,0,0,0,1.6-1.6v-4a1.6,1.6,0,0,0-1.6-1.6Zm8.8,0a1.6,1.6,0,0,0-1.6,1.6v4a1.612,1.612,0,0,0,1.6,1.6h4a1.612,1.612,0,0,0,1.6-1.6v-4a1.6,1.6,0,0,0-1.6-1.6ZM3.6,14h4v2.4h-4Zm8.8,0h4v2.4h-4Z" transform="translate(-2 -2)" fill="#707070"/>
</svg>
